# xmcd CD database file
#
# Track frame offsets:
#	180
#	16748
#	32828
#	38716
#	52595
#	63122
#	81861
#	95062
#	116012
#	138564
#	142030
#	160646
#	183124
#	202639
#
# Disc length: 2875 seconds
#
# Revision: 2
# Processed by: cddbd v1.4b41PL1 Copyright (c) Steve Scherf et al.
# Submitted via: Feurio! 1.60 - http://www.feurio.com
#
DISCID=a90b390e,c50b390e
DTITLE=Wolfgang Netzer's BavaRio - Unbekannte CD #A90B390E2ED12D1E
DYEAR=1900
DGENRE=
TTITLE0=Seinerzeit
TTITLE1=Mihosxeng
TTITLE2=Gratz'n
TTITLE3=oa Oa
TTITLE4=Kloa Waxnschdoa
TTITLE5=Bayao
TTITLE6=Grah butzt si
TTITLE7=Hoi
TTITLE8=Misturada
TTITLE9=Gams'n Blues
TTITLE10=Sovaco de Cobra
TTITLE11=Hods di?
TTITLE12=Theresienwiesenlandler
TTITLE13=St. Georg
EXTD=
EXTT0=
EXTT1=
EXTT2=
EXTT3=
EXTT4=
EXTT5=
EXTT6=
EXTT7=
EXTT8=
EXTT9=
EXTT10=
EXTT11=
EXTT12=
EXTT13=
PLAYORDER=
